# xmcd
#
# Track frame offsets:
#	150
#	14903
#	30034
#	45193
#	60833
#	75655
#	93681
#	109302
#	124020
#	142750
#	160559
#	174926
#	190331
#	203238
#	221681
#	235673
#	253048
#	269407
#
# Disc length: 3799 seconds
#
# Revision: 1
# Processed by: cddbd v1.5.2PL0 Copyright (c) Steve Scherf et al.
# Submitted via: audiograbber 1.83.01
#
DISCID=e60ed512
DTITLE=Various Artist - CDX Volume 596 (May 26, 2014)
DYEAR=2014
DGENRE=Country
TTITLE0=JT Hodges - Already High
TTITLE1=Lady Antebellum - Bartender
TTITLE2=Jerrod Niemann - Donkey [Radio Edit]
TTITLE3=Jana Kramer - Love 
TTITLE4=Sheryl Crow - Shotgun
TTITLE5=Keith Urban - Somewhere In My Car
TTITLE6=Mary K. Shanahan - America's Wings
TTITLE7=Chantal Dominique - Beautiful Maybe 
TTITLE8=Veronica Ballestrini - Cookies And Cream
TTITLE9=Veronica Ballestrini - Cookies And Cream (Radio Edit)
TTITLE10=Re Mattei - Country Love
TTITLE11=Livewire - Drivin' You Outta My Mind 
TTITLE12=Jay Jolley - High And Mighty
TTITLE13=Carl Parker - If I Didn't Have You Dad
TTITLE14=Tyler Barham - More Than A Cotton Dress 
TTITLE15=Sherry Kennedy - The Legend of Rainbow Powers
TTITLE16=Jody Lynn - The World's Out Dancin'
TTITLE17=Sarah Dunn Band - You Or The Whiskey
EXTD=
EXTT0=
EXTT1=
EXTT2=
EXTT3=
EXTT4=
EXTT5=
EXTT6=
EXTT7=
EXTT8=
EXTT9=
EXTT10=
EXTT11=
EXTT12=
EXTT13=
EXTT14=
EXTT15=
EXTT16=
EXTT17=
PLAYORDER=
